# xmcd CD database file
#
# Track frame offsets:
#	150
#	13668
#	25865
#
# Disc length: 755 seconds
#
# Revision: 0
# Processed by: cddbd v1.5PL3 Copyright (c) Steve Scherf et al.
# Submitted via: CDex 1.40Release
#
DISCID=1802f103
DTITLE=the pillows - I think I can
DYEAR=2000
DGENRE=Rock
TTITLE0=I think I can
TTITLE1=We have a theme song
TTITLE2=Scent of sweet
EXTD=YEAR: 2000 ID3G: 17
EXTT0=
EXTT1=
EXTT2=
PLAYORDER=
